<svg viewBox="0 0 64 64" xmlns="http://www.w3.org/2000/svg" xml:space="preserve" fill-rule="evenodd" clip-rule="evenodd" stroke-linejoin="round" stroke-miterlimit="2"><path fill="none" d="M0 0h64v64.0002H0z"/>
	<circle cx="36.021" cy="38.971" r="25.029" fill="#fff" transform="matrix(1.23854 0 0 1.23854 -12.614 -16.2665)"/>
	<path
		d="M31.9993 1.00002c17.11038 0 31.00056 13.89025 31.00056 31.00072 0 17.10922-13.89018 30.99948-31.00055 30.99948-17.10914 0-30.99932-13.89026-30.99932-30.99948 0-17.11047 13.89018-31.00072 30.99932-31.00072Zm0 4.00049c14.90207 0 27.00009 12.09808 27.00009 27.00023 0 14.9009-12.09802 26.99899-27.00008 26.99899-14.90083 0-26.99885-12.09809-26.99885-26.999 0-14.90214 12.09802-27.00022 26.99885-27.00022Z"
		fill="#ffc200"/>
	<g fill="#ffc200" fill-rule="nonzero"><path d="M17.90133 42.24767c-.70923 0-1.2502-.1964-1.62375-.58836-.37354-.39196-.56032-.94233-.56032-1.6519V24.46778c0-.72817.19183-1.27854.57463-1.65192.38196-.37337.92797-.56006 1.63805-.56006h6.80375c2.20258 0 3.9012.55521 5.09588 1.66565 1.19467 1.11043 1.792 2.65567 1.792 4.63408 0 1.97842-.59733 3.5277-1.792 4.64782-1.19468 1.12014-2.8933 1.6802-5.09588 1.6802h-4.67606v5.12384c0 .70958-.18172 1.25995-.54601 1.65191-.3643.39197-.90106.58836-1.61029.58836Zm2.1563-10.7237h3.94832c1.1198 0 1.97374-.25215 2.56182-.75645.58808-.5043.8817-1.24136.8817-2.21198s-.29362-1.69878-.8817-2.1837c-.58808-.4857-1.44202-.72816-2.56182-.72816h-3.94832v5.8803Z"/>
		<path
			d="M41.36575 42.30343c-.78411 0-1.58253-.06061-2.3944-.18184-.81187-.12123-1.58673-.29418-2.32373-.51804-.737-.22387-1.39575-.5043-1.97373-.8397-.41057-.22386-.69998-.51804-.86825-.88252-.16826-.36368-.22883-.73221-.18172-1.10559.04627-.37338.18677-.70473.41982-.99406.23304-.28932.53171-.47601.896-.56006.36345-.08405.76981-.01374 1.21824.21012.76476.42914 1.60019.74676 2.50545.95203.90526.20528 1.80631.30792 2.70232.30792 1.36293 0 2.33298-.21013 2.9118-.63038.57883-.41944.86825-.94718.86825-1.5816 0-.54148-.20529-.97062-.61585-1.28823-.41056-.3168-1.1299-.58755-2.1563-.81222l-3.1642-.6716c-1.79202-.37337-3.12215-1.01264-3.98955-1.9178-.86824-.90596-1.30236-2.0956-1.30236-3.57052 0-.93344.19603-1.78203.58808-2.54737.39206-.76534.94228-1.42805 1.65236-1.98812.70923-.56006 1.55391-.99001 2.53405-1.28823.9793-.29902 2.05787-.44773 3.2332-.44773 1.04575 0 2.07217.12608 3.08007.37742 1.00874.25215 1.89465.62068 2.66025 1.1064.37355.22386.63015.50834.7698.85424.1405.34509.18678.69018.1405 1.03527-.0471.3459-.18676.64897-.41981.91-.23389.26186-.5275.42996-.88254.5043-.3542.07436-.78411-.00888-1.28807-.25214-.61584-.3168-1.2687-.55037-1.95943-.69988-.69072-.14952-1.39996-.22387-2.12854-.22387-.78411 0-1.45128.10264-2.0015.30792-.55106.20527-.97088.4946-1.2603.86798-.28941.37338-.43412.80252-.43412 1.28823 0 .54148.19603.97951.58808 1.31571.39206.3362 1.07353.60694 2.04441.81222l3.16337.6716c1.82987.39196 3.19196 1.02234 4.08797 1.89032.896.86798 1.34443 2.01155 1.34443 3.4299 0 .93344-.18677 1.77799-.56032 2.53444-.37355.75565-.91452 1.40461-1.62375 1.94609-.70923.54067-1.55896.95607-2.54836 1.2454-.98939.28933-2.09993.43399-3.33162.43399Z"/></g></svg>